<svg width="578.5120727539062px" height="136.39999999999998px" xmlns="http://www.w3.org/2000/svg" viewBox="-39.25603637695309 6.800000000000011 578.5120727539062 136.39999999999998" preserveAspectRatio="xMidYMid"><defs><filter id="editing-extrude-glow"><feFlood flood-color="rgba(82.55224484125343%,53.7498296141843%,56.75903717522137%,0)" result="flood-1"></feFlood><feMorphology operator="erode" radius="1" in="SourceAlpha" result="erode"></feMorphology><feComposite operator="in" in="flood-1" in2="erode" result="comp1"></feComposite><feConvolveMatrix order="3,3" divisor="1" in="comp1" result="convolve" kernelMatrix="0 0 0 1 1 0 0 0 0 "></feConvolveMatrix><feOffset dx="-4" dy="0" in="convolve" result="extrude"></feOffset><feComposite operator="in" in="flood-1" in2="extrude" result="comp-extrude"></feComposite><feFlood flood-color="rgba(86.46058635231047%,70.31457684550443%,70.31457684550443%,0)" result="flood-2"></feFlood><feComposite operator="in" in="flood-2" in2="SourceAlpha" result="comp2"></feComposite><feMorphology operator="dilate" radius="1" in="comp2" result="dilate"></feMorphology><feOffset dx="-6" dy="0" in="dilate" result="offset"></feOffset><feGaussianBlur in="offset" stdDeviation="5.8" result="blur"></feGaussianBlur><feComponentTransfer in="blur" result="shadow"><feFuncA type="linear" slope="0.8" intercept="-0.2"></feFuncA></feComponentTransfer><feMerge><feMergeNode in="shadow"></feMergeNode><feMergeNode in="comp-extrude"></feMergeNode><feMergeNode in="SourceGraphic"></feMergeNode></feMerge></filter></defs><g filter="url(#editing-extrude-glow)"><g transform="translate(45.89770019054413, 98.69000053405762)"><path d="M5.06 0L7.09-11.91L-0.13-11.91L-0.13-11.91Q0-13 0.48-13.97L0.48-13.97L0.48-13.97Q0.97-14.94 1.70-15.67L1.70-15.67L1.70-15.67Q2.44-16.41 3.38-16.83L3.38-16.83L3.38-16.83Q4.31-17.25 5.34-17.25L5.34-17.25L8.03-17.25L12.19-41.47L12.19-41.47Q12.41-42.75 13.02-43.84L13.02-43.84L13.02-43.84Q13.63-44.94 14.45-45.72L14.45-45.72L14.45-45.72Q15.28-46.50 16.28-46.94L16.28-46.94L16.28-46.94Q17.28-47.38 18.28-47.38L18.28-47.38L25.88-47.38L25.88-47.38Q26.84-47.38 27.84-46.94L27.84-46.94L27.84-46.94Q28.84-46.50 29.69-45.70L29.69-45.70L29.69-45.70Q30.53-44.91 31.14-43.83L31.14-43.83L31.14-43.83Q31.75-42.75 31.97-41.44L31.97-41.44L39.09 0L31.63 0L29.69-11.91L14.34-11.91L12.44 0L5.06 0ZM15.19-17.25L28.84-17.25L24.84-42.09L19.13-42.09L19.13-42.09Q18.13-36.03 17.16-29.80L17.16-29.80L17.16-29.80Q16.19-23.56 15.19-17.25L15.19-17.25ZM48.34 0L48.34-47.38L55.75-47.38L55.75-35.91L67.41-45.03L67.41-45.03Q67.97-45.50 68.53-45.92L68.53-45.92L68.53-45.92Q69.09-46.34 69.70-46.67L69.70-46.67L69.70-46.67Q70.31-47 70.98-47.19L70.98-47.19L70.98-47.19Q71.66-47.38 72.44-47.38L72.44-47.38L72.44-47.38Q73.66-47.38 74.72-46.83L74.72-46.83L74.72-46.83Q75.78-46.28 76.58-45.30L76.58-45.30L76.58-45.30Q77.38-44.31 77.83-42.98L77.83-42.98L77.83-42.98Q78.28-41.66 78.28-40.13L78.28-40.13L78.28-5.38L85.31-5.38L85.31-5.38Q85.19-4.25 84.70-3.28L84.70-3.28L84.70-3.28Q84.22-2.31 83.48-1.58L83.48-1.58L83.48-1.58Q82.75-0.84 81.81-0.42L81.81-0.42L81.81-0.42Q80.88 0 79.84 0L79.84 0L76.47 0L76.47 0Q75.25 0 74.19-0.63L74.19-0.63L74.19-0.63Q73.13-1.25 72.33-2.31L72.33-2.31L72.33-2.31Q71.53-3.38 71.08-4.81L71.08-4.81L71.08-4.81Q70.63-6.25 70.63-7.88L70.63-7.88L70.63-41.09L55.75-29.50L55.75 0L48.34 0ZM91.63 0L93.66-11.91L86.44-11.91L86.44-11.91Q86.56-13 87.05-13.97L87.05-13.97L87.05-13.97Q87.53-14.94 88.27-15.67L88.27-15.67L88.27-15.67Q89-16.41 89.94-16.83L89.94-16.83L89.94-16.83Q90.88-17.25 91.91-17.25L91.91-17.25L94.59-17.25L98.75-41.47L98.75-41.47Q98.97-42.75 99.58-43.84L99.58-43.84L99.58-43.84Q100.19-44.94 101.02-45.72L101.02-45.72L101.02-45.72Q101.84-46.50 102.84-46.94L102.84-46.94L102.84-46.94Q103.84-47.38 104.84-47.38L104.84-47.38L112.44-47.38L112.44-47.38Q113.41-47.38 114.41-46.94L114.41-46.94L114.41-46.94Q115.41-46.50 116.25-45.70L116.25-45.70L116.25-45.70Q117.09-44.91 117.70-43.83L117.70-43.83L117.70-43.83Q118.31-42.75 118.53-41.44L118.53-41.44L125.66 0L118.19 0L116.25-11.91L100.91-11.91L99 0L91.63 0ZM101.75-17.25L115.41-17.25L111.41-42.09L105.69-42.09L105.69-42.09Q104.69-36.03 103.72-29.80L103.72-29.80L103.72-29.80Q102.75-23.56 101.75-17.25L101.75-17.25ZM134.91 0L134.91-47.38L142.31-47.38L142.31-35.91L153.97-45.03L153.97-45.03Q154.53-45.50 155.09-45.92L155.09-45.92L155.09-45.92Q155.66-46.34 156.27-46.67L156.27-46.67L156.27-46.67Q156.88-47 157.55-47.19L157.55-47.19L157.55-47.19Q158.22-47.38 159-47.38L159-47.38L159-47.38Q160.22-47.38 161.28-46.83L161.28-46.83L161.28-46.83Q162.34-46.28 163.14-45.30L163.14-45.30L163.14-45.30Q163.94-44.31 164.39-42.98L164.39-42.98L164.39-42.98Q164.84-41.66 164.84-40.13L164.84-40.13L164.84-5.38L171.88-5.38L171.88-5.38Q171.75-4.25 171.27-3.28L171.27-3.28L171.27-3.28Q170.78-2.31 170.05-1.58L170.05-1.58L170.05-1.58Q169.31-0.84 168.38-0.42L168.38-0.42L168.38-0.42Q167.44 0 166.41 0L166.41 0L163.03 0L163.03 0Q161.81 0 160.75-0.63L160.75-0.63L160.75-0.63Q159.69-1.25 158.89-2.31L158.89-2.31L158.89-2.31Q158.09-3.38 157.64-4.81L157.64-4.81L157.64-4.81Q157.19-6.25 157.19-7.88L157.19-7.88L157.19-41.09L142.31-29.50L142.31 0L134.91 0ZM180.78 0L180.75-30.69L180.75-30.69Q180.75-32.31 181.23-33.73L181.23-33.73L181.23-33.73Q181.72-35.16 182.55-36.23L182.55-36.23L182.55-36.23Q183.38-37.31 184.47-37.94L184.47-37.94L184.47-37.94Q185.56-38.56 186.81-38.56L186.81-38.56L188.22-38.56L188.22-5.34L202.69-5.34L202.69-42.09L174.69-42.09L174.69-42.09Q174.78-43.19 175.27-44.16L175.27-44.16L175.27-44.16Q175.75-45.13 176.48-45.84L176.48-45.84L176.48-45.84Q177.22-46.56 178.16-46.97L178.16-46.97L178.16-46.97Q179.09-47.38 180.16-47.38L180.16-47.38L204.16-47.38L204.16-47.38Q205.38-47.38 206.47-46.77L206.47-46.77L206.47-46.77Q207.56-46.16 208.36-45.08L208.36-45.08L208.36-45.08Q209.16-44 209.63-42.55L209.63-42.55L209.63-42.55Q210.09-41.09 210.09-39.44L210.09-39.44L210.09-7.88L210.09-7.88Q210.09-6.25 209.63-4.81L209.63-4.81L209.63-4.81Q209.16-3.38 208.36-2.31L208.36-2.31L208.36-2.31Q207.56-1.25 206.48-0.63L206.48-0.63L206.48-0.63Q205.41 0 204.19 0L204.19 0L180.78 0ZM223.66 0L223.66-17.66L216.19-17.66L216.19-17.66Q216.31-18.78 216.80-19.75L216.80-19.75L216.80-19.75Q217.28-20.72 218.02-21.44L218.02-21.44L218.02-21.44Q218.75-22.16 219.69-22.58L219.69-22.58L219.69-22.58Q220.63-23 221.66-23L221.66-23L223.66-23L223.66-47.38L231.09-47.38L231.09-23L247.94-23L247.94-47.38L255.44-47.38L255.44 0L247.94 0L247.94-17.66L231.09-17.66L231.09 0L223.66 0ZM267.63-7.88L267.63-47.38L275.13-47.38L275.13-5.69L278.03-5.69L290.06-15.19L290.06-47.38L297.50-47.38L297.50-5.38L303.75-5.38L303.75-5.38Q303.63-4.25 303.14-3.28L303.14-3.28L303.14-3.28Q302.66-2.31 301.92-1.58L301.92-1.58L301.92-1.58Q301.19-0.84 300.25-0.42L300.25-0.42L300.25-0.42Q299.31 0 298.28 0L298.28 0L290.06 0L290.06-9L280.16-1.03L280.16-1.03Q278.97 0 277.41 0L277.41 0L273.81 0L273.81 0Q272.56 0 271.44-0.63L271.44-0.63L271.44-0.63Q270.31-1.25 269.47-2.31L269.47-2.31L269.47-2.31Q268.63-3.38 268.13-4.81L268.13-4.81L268.13-4.81Q267.63-6.25 267.63-7.88L267.63-7.88ZM334.31 0L334.31 0L334.31 0Q334.44-1.09 334.92-2.06L334.92-2.06L334.92-2.06Q335.41-3.03 336.14-3.77L336.14-3.77L336.14-3.77Q336.88-4.50 337.81-4.92L337.81-4.92L337.81-4.92Q338.75-5.34 339.78-5.34L339.78-5.34L351.25-5.34L351.25-12.94L334.88-21.09L334.88-21.09Q333-22.03 331.88-23.94L331.88-23.94L331.88-23.94Q330.75-25.84 330.75-28.69L330.75-28.69L330.75-39.44L330.75-39.44Q330.75-41.09 331.20-42.55L331.20-42.55L331.20-42.55Q331.66-44 332.45-45.08L332.45-45.08L332.45-45.08Q333.25-46.16 334.31-46.77L334.31-46.77L334.31-46.77Q335.38-47.38 336.59-47.38L336.59-47.38L353.88-47.38L353.88-47.38Q355.09-47.38 356.16-46.77L356.16-46.77L356.16-46.77Q357.22-46.16 358.02-45.08L358.02-45.08L358.02-45.08Q358.81-44 359.28-42.55L359.28-42.55L359.28-42.55Q359.75-41.09 359.75-39.44L359.75-39.44L359.75-30.19L352.28-30.19L352.28-42.03L338.22-42.03L338.22-27.22L355.16-18.56L355.16-18.56Q355.97-18.16 356.63-17.44L356.63-17.44L356.63-17.44Q357.28-16.72 357.75-15.77L357.75-15.77L357.75-15.77Q358.22-14.81 358.47-13.66L358.47-13.66L358.47-13.66Q358.72-12.50 358.72-11.25L358.72-11.25L358.72-7.88L358.72-7.88Q358.72-6.25 358.25-4.81L358.25-4.81L358.25-4.81Q357.78-3.38 356.98-2.31L356.98-2.31L356.98-2.31Q356.19-1.25 355.13-0.63L355.13-0.63L355.13-0.63Q354.06 0 352.84 0L352.84 0L334.31 0ZM372.56 0L372.56-47.38L380.06-47.38L380.06-23.84L386.28-23.84L394.34-47.38L402.28-47.38L393.38-23.84L394.97-23.84L394.97-23.84Q396.19-23.84 397.20-23.22L397.20-23.22L397.20-23.22Q398.22-22.59 398.94-21.53L398.94-21.53L398.94-21.53Q399.66-20.47 400.06-19.05L400.06-19.05L400.06-19.05Q400.47-17.63 400.47-16L400.47-16L400.47-5.38L408.78-5.38L408.78-5.38Q408.66-4.25 408.17-3.28L408.17-3.28L408.17-3.28Q407.69-2.31 406.95-1.58L406.95-1.58L406.95-1.58Q406.22-0.84 405.28-0.42L405.28-0.42L405.28-0.42Q404.34 0 403.31 0L403.31 0L398.91 0L398.91 0Q397.69 0 396.61-0.63L396.61-0.63L396.61-0.63Q395.53-1.25 394.72-2.31L394.72-2.31L394.72-2.31Q393.91-3.38 393.44-4.81L393.44-4.81L393.44-4.81Q392.97-6.25 392.97-7.88L392.97-7.88L392.97-18.59L380.06-18.59L380.06 0L372.56 0Z" fill="#ffffff"></path></g></g><style>text {
  font-size: 64px;
  font-family: Arial Black;
  dominant-baseline: central;
  text-anchor: middle;
}</style></svg>